<svg width="140" height="141" viewBox="0 0 140 141" fill="none" xmlns="http://www.w3.org/2000/svg">
<g clip-path="url(#clip0_123_210)">
<path d="M30.7232 61.7459C30.2914 62.1828 29.7393 62.4812 29.1372 62.603C28.5352 62.7248 27.9105 62.6646 27.3428 62.4301C26.7751 62.1955 26.2901 61.7971 25.9497 61.2858C25.6093 60.7746 25.4288 60.1735 25.4314 59.5592L25.322 46.5483C25.322 45.7248 25.6492 44.935 26.2315 44.3527C26.8138 43.7703 27.6036 43.4432 28.4272 43.4432C29.2507 43.4432 30.0405 43.7703 30.6228 44.3527C31.2052 44.935 31.5323 45.7248 31.5323 46.5483L31.5323 59.6686C31.5303 60.4375 31.2418 61.1782 30.7232 61.7459V61.7459Z" fill="#F6BEC8"/>
<path d="M43.7341 52.1025C43.3023 52.5394 42.7501 52.8378 42.1481 52.9596C41.546 53.0815 40.9214 53.0212 40.3537 52.7867C39.786 52.5521 39.301 52.1538 38.9606 51.6425C38.6201 51.1312 38.4397 50.5301 38.4422 49.9158L38.4422 37.8015C38.4422 36.9779 38.7694 36.1881 39.3517 35.6058C39.934 35.0235 40.7238 34.6963 41.5474 34.6963C42.3709 34.6963 43.1607 35.0235 43.743 35.6058C44.3253 36.1881 44.6525 36.9779 44.6525 37.8015L44.6525 49.9158C44.6508 50.3228 44.5688 50.7255 44.4112 51.1007C44.2536 51.476 44.0235 51.8164 43.7341 52.1025V52.1025Z" fill="#F6BEC8"/>
<path d="M113.818 61.746C113.386 62.1828 112.834 62.4812 112.232 62.603C111.63 62.7249 111.005 62.6647 110.438 62.4301C109.87 62.1955 109.385 61.7972 109.045 61.2859C108.704 60.7746 108.524 60.1735 108.526 59.5593L108.526 46.6577C108.526 45.8342 108.853 45.0444 109.436 44.462C110.018 43.8797 110.808 43.5526 111.631 43.5526C112.455 43.5526 113.245 43.8797 113.827 44.462C114.409 45.0443 114.737 45.8342 114.737 46.6577L114.737 59.5593C114.735 59.9663 114.653 60.3689 114.495 60.7442C114.338 61.1194 114.108 61.4599 113.818 61.746V61.746Z" fill="#F6BEC8"/>
<path d="M100.589 52.1026C100.157 52.5394 99.6046 52.8378 99.0026 52.9596C98.4005 53.0815 97.7758 53.0213 97.2082 52.7867C96.6405 52.5521 96.1555 52.1538 95.8151 51.6425C95.4746 51.1312 95.2942 50.5301 95.2967 49.9158L95.2967 37.8015C95.2967 36.9779 95.6239 36.1881 96.2062 35.6058C96.7885 35.0235 97.5783 34.6963 98.4019 34.6963C99.2254 34.6963 100.015 35.0235 100.598 35.6058C101.18 36.1881 101.507 36.9779 101.507 37.8015L101.507 49.9158C101.505 50.3228 101.423 50.7255 101.266 51.1007C101.108 51.476 100.878 51.8164 100.589 52.1026Z" fill="#F6BEC8"/>
<path d="M88.7366 39.0698L89.1739 35.1337C89.6595 30.8357 89.1684 26.4836 87.7372 22.4019C86.3059 18.3203 83.9715 14.6145 80.9082 11.561C78.0084 8.66122 74.0755 7.03215 69.9746 7.03215C65.8737 7.03215 61.9408 8.66121 59.0411 11.561C55.9777 14.6145 53.6433 18.3203 52.2121 22.4019C50.7808 26.4836 50.2897 30.8357 50.7753 35.1337L51.2127 39.0698L17.7123 63.4297C15.3215 65.1706 13.4801 67.5606 12.4065 70.3163C11.3329 73.072 11.0721 76.0778 11.6551 78.9772L12.2892 82.1479C12.4455 82.9191 12.8898 83.6017 13.5317 84.0567C14.1736 84.5117 14.9648 84.705 15.7442 84.597L55.6298 78.9116L56.5264 87.7678L44.2589 96.9738C43.1386 97.8387 42.231 98.9485 41.6056 100.218C40.9802 101.488 40.6536 102.884 40.6508 104.299L40.629 109.963C40.6276 110.399 40.7183 110.83 40.8952 111.228C41.072 111.626 41.331 111.982 41.6551 112.273C41.9792 112.564 42.3612 112.784 42.776 112.917C43.1908 113.05 43.6291 113.094 44.0621 113.046L59.2597 111.362L60.0907 118.841C60.2987 120.703 61.0279 122.469 62.1945 123.935C63.3611 125.401 64.9177 126.509 66.6854 127.13C68.4532 127.751 70.3603 127.861 72.1877 127.447C74.0151 127.033 75.6886 126.111 77.0158 124.789C80.1428 121.662 79.9023 118.578 80.6895 111.362L95.8652 113.024C96.2981 113.075 96.7369 113.034 97.1528 112.904C97.5688 112.774 97.9524 112.557 98.2787 112.268C98.6049 111.979 98.8664 111.624 99.0459 111.227C99.2254 110.829 99.3189 110.399 99.3202 109.963L99.2984 104.299C99.2988 102.862 98.9652 101.444 98.3238 100.157C97.6825 98.871 96.751 97.7512 95.6028 96.8863L83.4229 87.7678L87.9494 46.1547L118.585 68.4373C120.048 69.4771 121.178 70.9188 121.837 72.5878C122.497 74.2567 122.659 76.0812 122.303 77.8401C122.215 78.2775 124.336 78.4305 94.5314 74.1664C93.7194 74.0505 92.8947 74.2617 92.2385 74.7539C91.5824 75.246 91.1486 75.9786 91.0326 76.7905C90.9166 77.6024 91.1279 78.4272 91.62 79.0833C92.1121 79.7395 92.8447 80.1732 93.6567 80.2892L124.271 84.6626C124.746 84.7305 125.23 84.6868 125.686 84.535C126.141 84.3832 126.555 84.1274 126.895 83.788C127.704 82.9789 127.682 82.5634 128.36 79.0428C128.943 76.1434 128.682 73.1376 127.608 70.3819C126.535 67.6262 124.693 65.2362 122.303 63.4953L88.7366 39.0698ZM17.7779 78.0588C17.3666 76.2908 17.4831 74.4411 18.1127 72.7386C18.7424 71.0362 19.8577 69.5559 21.3203 68.481L51.9999 46.1547L54.9519 72.767L17.7779 78.0588ZM46.8392 106.508C46.8174 104.168 46.6424 102.9 48.0638 101.828L57.401 94.809L58.56 105.196L46.8392 106.508ZM73.7576 118.119C73.6917 118.836 73.4221 119.519 72.9805 120.088C72.539 120.656 71.944 121.087 71.2658 121.328C70.5875 121.57 69.8544 121.612 69.1529 121.45C68.4514 121.288 67.8109 120.929 67.3068 120.415C65.8855 118.994 67.0444 125.051 56.9856 34.5214C56.581 31.1387 56.9494 27.7084 58.063 24.4887C59.1766 21.2691 61.0064 18.3442 63.4145 15.9344C65.1543 14.1945 67.5141 13.2171 69.9746 13.2171C72.4351 13.2171 74.7949 14.1945 76.5347 15.9344C78.9453 18.331 80.7818 21.2424 81.9066 24.4501C83.0314 27.6578 83.4152 31.0786 83.0293 34.4558L73.7576 118.119ZM91.9292 101.785C93.4817 102.944 93.1537 104.627 93.1537 106.464L81.3892 105.108L82.5482 94.7215L91.9292 101.785Z" fill="white"/>
<path d="M76.5347 29.0546C75.9548 29.6346 75.1682 29.9604 74.348 29.9604C73.5279 29.9604 72.7413 29.6346 72.1613 29.0546C71.5814 28.4747 70.7948 28.1489 69.9746 28.1489C69.1544 28.1489 68.3679 28.4747 67.7879 29.0546C67.208 29.6346 66.4214 29.9604 65.6012 29.9604C64.781 29.9604 63.9944 29.6346 63.4145 29.0546C62.8345 28.4747 62.5087 27.6881 62.5087 26.8679C62.5087 26.0477 62.8345 25.2612 63.4145 24.6812C69.9746 18.1211 80.7332 24.8561 76.5347 29.0546Z" fill="#F6BEC8"/>
</g>
<defs>
<clipPath id="clip0_123_210">
<rect width="98.9591" height="98.9591" fill="white" transform="translate(0 70.6021) rotate(-45)"/>
</clipPath>
</defs>
</svg>
