<svg width="140" height="141" viewBox="0 0 140 141" fill="none" xmlns="http://www.w3.org/2000/svg">
<g clip-path="url(#clip0_123_149)">
<path d="M30.7233 61.7459C30.2915 62.1828 29.7393 62.4812 29.1373 62.603C28.5353 62.7248 27.9106 62.6646 27.3429 62.4301C26.7752 62.1955 26.2902 61.7971 25.9498 61.2858C25.6094 60.7746 25.4289 60.1735 25.4314 59.5592L25.3221 46.5483C25.3221 45.7248 25.6493 44.935 26.2316 44.3527C26.8139 43.7703 27.6037 43.4432 28.4272 43.4432C29.2508 43.4432 30.0406 43.7703 30.6229 44.3527C31.2052 44.935 31.5324 45.7248 31.5324 46.5483L31.5324 59.6686C31.5303 60.4375 31.2419 61.1782 30.7233 61.7459V61.7459Z" fill="#F6BEC8"/>
<path d="M43.7342 52.1025C43.3024 52.5394 42.7503 52.8378 42.1482 52.9596C41.5462 53.0815 40.9215 53.0212 40.3538 52.7867C39.7861 52.5521 39.3011 52.1538 38.9607 51.6425C38.6203 51.1312 38.4398 50.5301 38.4424 49.9158L38.4424 37.8015C38.4424 36.9779 38.7695 36.1881 39.3518 35.6058C39.9342 35.0235 40.7239 34.6963 41.5475 34.6963C42.371 34.6963 43.1608 35.0235 43.7431 35.6058C44.3255 36.1881 44.6526 36.9779 44.6526 37.8015L44.6526 49.9158C44.6509 50.3228 44.569 50.7255 44.4114 51.1007C44.2538 51.476 44.0236 51.8164 43.7342 52.1025V52.1025Z" fill="#F6BEC8"/>
<path d="M113.818 61.746C113.386 62.1828 112.834 62.4812 112.232 62.603C111.63 62.7249 111.006 62.6647 110.438 62.4301C109.87 62.1955 109.385 61.7972 109.045 61.2859C108.704 60.7746 108.524 60.1735 108.526 59.5593L108.526 46.6577C108.526 45.8342 108.854 45.0444 109.436 44.462C110.018 43.8797 110.808 43.5526 111.632 43.5526C112.455 43.5526 113.245 43.8797 113.827 44.462C114.41 45.0443 114.737 45.8342 114.737 46.6577L114.737 59.5593C114.735 59.9663 114.653 60.3689 114.495 60.7442C114.338 61.1194 114.108 61.4599 113.818 61.746V61.746Z" fill="#F6BEC8"/>
<path d="M100.589 52.1026C100.157 52.5394 99.6047 52.8378 99.0026 52.9596C98.4006 53.0815 97.7759 53.0213 97.2082 52.7867C96.6405 52.5521 96.1555 52.1538 95.8151 51.6425C95.4747 51.1312 95.2943 50.5301 95.2968 49.9158L95.2968 37.8015C95.2968 36.9779 95.6239 36.1881 96.2063 35.6058C96.7886 35.0235 97.5784 34.6963 98.4019 34.6963C99.2254 34.6963 100.015 35.0235 100.598 35.6058C101.18 36.1881 101.507 36.9779 101.507 37.8015L101.507 49.9158C101.505 50.3228 101.423 50.7255 101.266 51.1007C101.108 51.476 100.878 51.8164 100.589 52.1026Z" fill="#F6BEC8"/>
<path d="M88.7366 39.0698L89.174 35.1337C89.6596 30.8357 89.1685 26.4836 87.7372 22.4019C86.306 18.3203 83.9716 14.6145 80.9082 11.561C78.0085 8.66122 74.0756 7.03215 69.9747 7.03215C65.8738 7.03215 61.9409 8.66121 59.0411 11.561C55.9777 14.6145 53.6434 18.3203 52.2121 22.4019C50.7809 26.4836 50.2898 30.8357 50.7754 35.1337L51.2127 39.0698L17.7123 63.4297C15.3216 65.1706 13.4802 67.5606 12.4066 70.3163C11.333 73.072 11.0722 76.0778 11.6552 78.9772L12.2893 82.1479C12.4456 82.9191 12.8899 83.6017 13.5318 84.0567C14.1737 84.5117 14.9649 84.705 15.7443 84.597L55.6299 78.9116L56.5264 87.7678L44.259 96.9738C43.1386 97.8387 42.231 98.9485 41.6056 100.218C40.9803 101.488 40.6537 102.884 40.6509 104.299L40.629 109.963C40.6277 110.399 40.7184 110.83 40.8952 111.228C41.0721 111.626 41.331 111.982 41.6552 112.273C41.9793 112.564 42.3613 112.784 42.7761 112.917C43.1909 113.05 43.6292 113.094 44.0622 113.046L59.2598 111.362L60.0908 118.841C60.2988 120.703 61.028 122.469 62.1946 123.935C63.3612 125.401 64.9178 126.509 66.6855 127.13C68.4532 127.751 70.3604 127.861 72.1878 127.447C74.0152 127.033 75.6886 126.111 77.0159 124.789C80.1429 121.662 79.9023 118.578 80.6895 111.362L95.8653 113.024C96.2982 113.075 96.737 113.034 97.1529 112.904C97.5688 112.774 97.9525 112.557 98.2787 112.268C98.605 111.979 98.8664 111.624 99.0459 111.227C99.2254 110.829 99.3189 110.399 99.3203 109.963L99.2984 104.299C99.2988 102.862 98.9652 101.444 98.3239 100.157C97.6826 98.871 96.7511 97.7512 95.6029 96.8863L83.4229 87.7678L87.9494 46.1547L118.585 68.4373C120.048 69.4771 121.178 70.9188 121.837 72.5878C122.497 74.2567 122.659 76.0812 122.303 77.8401C122.215 78.2775 124.336 78.4305 94.5314 74.1664C93.7195 74.0505 92.8947 74.2617 92.2386 74.7539C91.5825 75.246 91.1487 75.9786 91.0327 76.7905C90.9167 77.6024 91.128 78.4272 91.6201 79.0833C92.1122 79.7395 92.8448 80.1732 93.6567 80.2892L124.271 84.6626C124.746 84.7305 125.23 84.6868 125.686 84.535C126.141 84.3832 126.555 84.1274 126.895 83.788C127.704 82.9789 127.682 82.5634 128.36 79.0428C128.943 76.1434 128.682 73.1376 127.608 70.3819C126.535 67.6262 124.693 65.2362 122.303 63.4953L88.7366 39.0698ZM17.7779 78.0588C17.3667 76.2908 17.4831 74.4411 18.1128 72.7386C18.7425 71.0362 19.8577 69.5559 21.3204 68.481L51.9999 46.1547L54.952 72.767L17.7779 78.0588ZM46.8393 106.508C46.8174 104.168 46.6425 102.9 48.0639 101.828L57.4011 94.809L58.5601 105.196L46.8393 106.508ZM73.7577 118.119C73.6918 118.836 73.4221 119.519 72.9806 120.088C72.539 120.656 71.9441 121.087 71.2658 121.328C70.5876 121.57 69.8545 121.612 69.153 121.45C68.4515 121.288 67.8109 120.929 67.3069 120.415C65.8855 118.994 67.0445 125.051 56.9856 34.5214C56.5811 31.1387 56.9495 27.7084 58.0631 24.4887C59.1767 21.2691 61.0065 18.3442 63.4146 15.9344C65.1544 14.1945 67.5142 13.2171 69.9747 13.2171C72.4352 13.2171 74.795 14.1945 76.5348 15.9344C78.9453 18.331 80.7819 21.2424 81.9067 24.4501C83.0315 27.6578 83.4153 31.0786 83.0293 34.4558L73.7577 118.119ZM91.9292 101.785C93.4818 102.944 93.1538 104.627 93.1538 106.464L81.3893 105.108L82.5482 94.7215L91.9292 101.785Z" fill="white"/>
<path d="M76.5348 29.0546C75.9549 29.6346 75.1683 29.9604 74.3481 29.9604C73.5279 29.9604 72.7413 29.6346 72.1614 29.0546C71.5814 28.4747 70.7949 28.1489 69.9747 28.1489C69.1545 28.1489 68.3679 28.4747 67.788 29.0546C67.208 29.6346 66.4214 29.9604 65.6013 29.9604C64.7811 29.9604 63.9945 29.6346 63.4146 29.0546C62.8346 28.4747 62.5088 27.6881 62.5088 26.8679C62.5088 26.0477 62.8346 25.2612 63.4146 24.6812C69.9747 18.1211 80.7333 24.8561 76.5348 29.0546Z" fill="#F6BEC8"/>
</g>
<defs>
<clipPath id="clip0_123_149">
<rect width="98.9591" height="98.9591" fill="white" transform="translate(0 70.6021) rotate(-45)"/>
</clipPath>
</defs>
</svg>
