<svg width="100" height="99" viewBox="0 0 100 99" fill="none" xmlns="http://www.w3.org/2000/svg">
<g clip-path="url(#clip0_123_151)">
<path d="M53.0937 77.0625C53.0933 77.5629 53.2166 78.0557 53.453 78.4979C53.6894 78.9402 54.0317 79.3183 54.4499 79.5993C54.8681 79.8803 55.3495 80.0556 55.8519 80.1099C56.3544 80.1642 56.8626 80.0958 57.3322 79.9106L72.8009 73.7856C73.2823 73.6114 73.7125 73.3215 74.0527 72.942C74.3929 72.5624 74.6325 72.1052 74.75 71.6113L80.9375 44.0488C81.0345 43.6084 81.0321 43.1522 80.9305 42.7128C80.8289 42.2734 80.6306 41.8617 80.3497 41.5069L58.6934 13.9444C58.1746 13.3579 57.4494 12.9894 56.6656 12.9138C55.8818 12.8383 55.0984 13.0615 54.4751 13.538C53.8518 14.0144 53.4355 14.7082 53.3111 15.4779C53.1866 16.2477 53.3634 17.0354 53.8053 17.6806L74.5025 44.11L68.9956 68.61L55.0428 74.1225C54.4522 74.355 53.9482 74.762 53.5995 75.288C53.2508 75.814 53.0742 76.4336 53.0937 77.0625Z" fill="#F6BEC8"/>
<path d="M57.2703 7.45188C58.1441 10.1869 58.8161 12.9811 59.2813 15.8125L59.2813 78.3794L68.5625 83.8919L68.5625 83.1875C68.5625 82.3753 68.8884 81.5963 69.4686 81.022C70.0488 80.4477 70.8357 80.125 71.6563 80.125C72.4768 80.125 73.2637 80.4477 73.8439 81.022C74.4241 81.5963 74.75 82.3753 74.75 83.1875L74.75 95.4375C74.75 96.2497 74.4241 97.0287 73.8439 97.603C73.2637 98.1773 72.4768 98.5 71.6562 98.5C70.8357 98.5 70.0488 98.1773 69.4686 97.603C68.8884 97.0287 68.5625 96.2497 68.5625 95.4375L68.5625 91.0581L59.2813 85.5456L59.2813 89.3125C59.2813 91.7492 58.3034 94.0861 56.5628 95.809C54.8223 97.532 52.4615 98.5 50 98.5L37.625 98.5C35.1635 98.5 32.8027 97.532 31.0622 95.809C29.3216 94.0861 28.3438 91.7492 28.3438 89.3125L28.3438 85.8212C25.4274 85.0759 22.8858 83.3032 21.1953 80.8355C19.5049 78.3678 18.7816 75.3745 19.1611 72.4167C19.5407 69.4589 20.9969 66.7396 23.2569 64.7686C25.5169 62.7976 28.4255 61.7102 31.4375 61.7102C34.4495 61.7102 37.3581 62.7976 39.6181 64.7686C41.8781 66.7396 43.3343 69.4589 43.7139 72.4167C44.0934 75.3745 43.3701 78.3678 41.6797 80.8355C39.9892 83.3032 37.4476 85.0759 34.5313 85.8212L34.5313 89.3125C34.5313 90.1247 34.8572 90.9037 35.4374 91.478C36.0176 92.0523 36.8045 92.375 37.625 92.375L50 92.375C50.8205 92.375 51.6074 92.0523 52.1876 91.478C52.7678 90.9037 53.0938 90.1247 53.0938 89.3125L53.0938 16.18L51.2684 8.9525C51.0991 8.273 50.6997 7.67144 50.1368 7.24795C49.5739 6.82447 48.8814 6.60462 48.1747 6.625L37.625 6.625C36.8045 6.625 36.0176 6.94765 35.4374 7.52198C34.8572 8.09631 34.5313 8.87527 34.5313 9.6875L34.5313 13.1787C37.1528 13.884 39.4671 15.4236 41.117 17.56C42.767 19.6963 43.6609 22.3108 43.6609 25C43.6609 27.6892 42.767 30.3037 41.117 32.44C39.4671 34.5764 37.1528 36.116 34.5313 36.8213L34.5313 52.5625C34.5313 53.3747 34.2053 54.1537 33.6251 54.728C33.0449 55.3023 32.258 55.625 31.4375 55.625C30.617 55.625 29.8301 55.3023 29.2499 54.728C28.6697 54.1537 28.3438 53.3747 28.3438 52.5625L28.3438 36.8213C25.7222 36.116 23.4079 34.5764 21.758 32.44C20.108 30.3037 19.2141 27.6892 19.2141 25C19.2141 22.3108 20.108 19.6963 21.758 17.56C23.4079 15.4236 25.7222 13.884 28.3438 13.1787L28.3438 9.6875C28.3438 7.25082 29.3216 4.91395 31.0622 3.19095C32.8027 1.46796 35.1635 0.5 37.625 0.5L48.2675 0.5C50.3361 0.499882 52.3455 1.18388 53.9766 2.44337C55.6077 3.70287 56.7669 5.46568 57.2703 7.45188V7.45188ZM37.625 74C37.625 72.7886 37.2621 71.6044 36.5822 70.5971C35.9023 69.5899 34.936 68.8048 33.8054 68.3412C32.6747 67.8777 31.4306 67.7564 30.2304 67.9927C29.0301 68.229 27.9276 68.8124 27.0623 69.669C26.1969 70.5256 25.6076 71.6169 25.3689 72.8051C25.1301 73.9932 25.2527 75.2247 25.721 76.3439C26.1893 77.4631 26.9824 78.4197 27.9999 79.0928C29.0174 79.7658 30.2137 80.125 31.4375 80.125C33.0785 80.125 34.6523 79.4797 35.8127 78.331C36.9731 77.1824 37.625 75.6245 37.625 74V74ZM25.25 25C25.25 26.2114 25.6129 27.3956 26.2928 28.4029C26.9727 29.4101 27.939 30.1952 29.0696 30.6588C30.2003 31.1223 31.4444 31.2436 32.6446 31.0073C33.8449 30.771 34.9474 30.1876 35.8127 29.331C36.6781 28.4744 37.2674 27.3831 37.5061 26.1949C37.7449 25.0068 37.6223 23.7753 37.154 22.6561C36.6857 21.5369 35.8926 20.5803 34.8751 19.9072C33.8576 19.2342 32.6613 18.875 31.4375 18.875C29.7965 18.875 28.2227 19.5203 27.0623 20.669C25.9019 21.8176 25.25 23.3755 25.25 25Z" fill="white"/>
</g>
<defs>
<clipPath id="clip0_123_151">
<rect width="98" height="99" fill="white" transform="matrix(1.19249e-08 -1 -1 -1.19249e-08 99.5 98.5)"/>
</clipPath>
</defs>
</svg>
