<svg width="101" height="100" viewBox="0 0 101 100" fill="none" xmlns="http://www.w3.org/2000/svg">
<g clip-path="url(#clip0_123_146)">
<path d="M47.375 37.625C47.3825 38.3757 47.1139 39.1035 46.6195 39.6727C46.125 40.2419 45.4384 40.6137 44.6875 40.7187L26.375 43.3175C25.484 43.4423 24.5762 43.3751 23.7138 43.1205C22.8514 42.8659 22.0547 42.43 21.3782 41.8425C20.7017 41.255 20.1613 40.5298 19.794 39.7165C19.4267 38.9031 19.2411 38.0209 19.25 37.13L19.25 32.9844C19.2546 32.0027 19.495 31.0362 19.9515 30.1648C20.4079 29.2933 21.0672 28.5418 21.875 27.9725L42.4375 13.4319C42.7665 13.1529 43.1506 12.9448 43.5652 12.8206C43.9798 12.6964 44.416 12.659 44.8461 12.7106C45.2761 12.7622 45.6906 12.9017 46.0633 13.1204C46.436 13.339 46.7586 13.632 47.0108 13.9807C47.263 14.3294 47.4392 14.7262 47.5283 15.1459C47.6173 15.5656 47.6173 15.999 47.5281 16.4187C47.4389 16.8384 47.2626 17.2351 47.0103 17.5837C46.758 17.9323 46.4352 18.2252 46.0625 18.4437L25.5 33.0153L25.5 37.1609L43.8125 34.5312C44.258 34.4689 44.7119 34.5025 45.1431 34.6297C45.5743 34.757 45.9726 34.975 46.3109 35.2688C46.6492 35.5625 46.9193 35.9251 47.103 36.3318C47.2867 36.7384 47.3794 37.1796 47.375 37.625Z" fill="#F6BEC8"/>
<path d="M72.375 3.59375L72.375 6.6875C72.375 7.50801 72.0458 8.29492 71.4597 8.87511C70.8737 9.4553 70.0788 9.78125 69.25 9.78125C68.4212 9.78125 67.6263 9.4553 67.0403 8.87511C66.4542 8.29492 66.125 7.50801 66.125 6.6875L66.125 3.59375C66.125 2.77324 66.4542 1.98633 67.0403 1.40614C67.6263 0.825945 68.4212 0.5 69.25 0.5C70.0788 0.5 70.8737 0.825945 71.4597 1.40614C72.0458 1.98633 72.375 2.77324 72.375 3.59375Z" fill="white"/>
<path d="M41.125 12.875L41.125 65.4687L31.75 65.4687C30.9212 65.4687 30.1263 65.7947 29.5403 66.3749C28.9542 66.9551 28.625 67.742 28.625 68.5625C28.6243 72.1285 29.8681 75.5853 32.1459 78.3477C34.4238 81.1102 37.5957 83.0087 41.125 83.7219L41.125 87.125C41.125 89.5865 42.1127 91.9473 43.8709 93.6878C45.629 95.4284 48.0136 96.4062 50.5 96.4062L56.75 96.4062C57.5788 96.4062 58.3737 96.0803 58.9597 95.5001C59.5458 94.9199 59.875 94.133 59.875 93.3125C59.875 92.492 59.5458 91.7051 58.9597 91.1249C58.3737 90.5447 57.5788 90.2187 56.75 90.2187L50.5 90.2187C49.6712 90.2187 48.8763 89.8928 48.2903 89.3126C47.7042 88.7324 47.375 87.9455 47.375 87.125L47.375 12.875C47.375 12.0545 47.7042 11.2676 48.2903 10.6874C48.8763 10.1072 49.6712 9.78125 50.5 9.78125L53.625 9.78125L53.625 12.875C53.625 13.6955 53.9542 14.4824 54.5403 15.0626C55.1263 15.6428 55.9212 15.9687 56.75 15.9687C57.5788 15.9687 58.3737 15.6428 58.9597 15.0626C59.5458 14.4824 59.875 13.6955 59.875 12.875L59.875 9.78125L66.125 9.78125L66.125 16.4019C63.477 17.1143 61.1393 18.6696 59.4727 20.8278C57.8061 22.986 56.9031 25.6271 56.9031 28.3437C56.9031 31.0604 57.8061 33.7015 59.4727 35.8597C61.1393 38.0179 63.477 39.5732 66.125 40.2856L66.125 59.7144C63.477 60.4268 61.1393 61.9821 59.4727 64.1403C57.8061 66.2985 56.9031 68.9396 56.9031 71.6562C56.9031 74.3729 57.8061 77.014 59.4727 79.1722C61.1393 81.3304 63.477 82.8857 66.125 83.5981L66.125 96.4062C66.125 97.2268 66.4542 98.0137 67.0403 98.5939C67.6263 99.1741 68.4212 99.5 69.25 99.5C70.0788 99.5 70.8737 99.1741 71.4597 98.5939C72.0458 98.0137 72.375 97.2268 72.375 96.4062L72.375 83.5981C75.023 82.8857 77.3607 81.3304 79.0273 79.1722C80.6939 77.014 81.5969 74.3729 81.5969 71.6562C81.5969 68.9396 80.6939 66.2985 79.0273 64.1403C77.3607 61.9821 75.023 60.4268 72.375 59.7144L72.375 40.2856C75.023 39.5732 77.3607 38.0179 79.0273 35.8597C80.6939 33.7015 81.5969 31.0604 81.5969 28.3437C81.5969 25.6271 80.6939 22.986 79.0273 20.8278C77.3607 18.6696 75.023 17.1143 72.375 16.4019L72.375 6.6875C72.375 5.86698 72.0458 5.08007 71.4597 4.49988C70.8737 3.91969 70.0788 3.59375 69.25 3.59375L50.5 3.59375C48.0136 3.59375 45.629 4.57159 43.8709 6.31216C42.1127 8.05274 41.125 10.4135 41.125 12.875V12.875ZM41.125 77.3178C39.8054 76.8565 38.6068 76.1086 37.6172 75.1289C36.6277 74.1493 35.8722 72.9627 35.4062 71.6562L41.125 71.6562L41.125 77.3178ZM75.5 71.6562C75.5 72.88 75.1334 74.0763 74.4467 75.0938C73.7599 76.1114 72.7838 76.9044 71.6418 77.3728C70.4997 77.8411 69.2431 77.9636 68.0307 77.7249C66.8183 77.4861 65.7047 76.8968 64.8306 76.0315C63.9565 75.1661 63.3613 74.0636 63.1201 72.8634C62.8789 71.6631 63.0027 70.419 63.4758 69.2884C63.9488 68.1578 64.7499 67.1914 65.7777 66.5115C66.8055 65.8316 68.0139 65.4687 69.25 65.4687C70.9076 65.4687 72.4973 66.1206 73.6694 67.281C74.8415 68.4414 75.5 70.0152 75.5 71.6562ZM75.5 28.3437C75.5 29.5675 75.1334 30.7638 74.4467 31.7813C73.7599 32.7989 72.7838 33.5919 71.6418 34.0603C70.4997 34.5286 69.2431 34.6511 68.0307 34.4124C66.8183 34.1736 65.7047 33.5843 64.8306 32.719C63.9565 31.8536 63.3612 30.7511 63.1201 29.5509C62.8789 28.3506 63.0027 27.1065 63.4758 25.9759C63.9488 24.8453 64.7499 23.8789 65.7777 23.199C66.8055 22.5191 68.0139 22.1562 69.25 22.1562C70.9076 22.1562 72.4973 22.8081 73.6694 23.9685C74.8415 25.1289 75.5 26.7027 75.5 28.3437Z" fill="white"/>
</g>
<defs>
<clipPath id="clip0_123_146">
<rect width="99" height="100" fill="white" transform="translate(0.5 99.5) rotate(-90)"/>
</clipPath>
</defs>
</svg>
