<svg width="100" height="99" viewBox="0 0 100 99" fill="none" xmlns="http://www.w3.org/2000/svg">
<g clip-path="url(#clip0_123_200)">
<path d="M90.0435 49.5L90.0435 77.3438C90.0435 78.1643 89.7175 78.9512 89.1373 79.5314C88.5571 80.1116 87.7702 80.4375 86.9497 80.4375L74.5747 80.4375C73.7542 80.4375 72.9673 80.1116 72.3871 79.5314C71.8069 78.9512 71.481 78.1643 71.481 77.3437L71.481 52.5937C71.4826 52.0664 71.6189 51.5482 71.8772 51.0883C72.1354 50.6285 72.5068 50.2423 72.9563 49.9664C73.4058 49.6905 73.9183 49.5341 74.4452 49.5121C74.9721 49.49 75.4959 49.603 75.9669 49.8403L83.856 53.7694L83.856 49.5C83.856 48.6795 84.1819 47.8926 84.7621 47.3124C85.3423 46.7322 86.1292 46.4062 86.9497 46.4062C87.7702 46.4062 88.5571 46.7322 89.1373 47.3124C89.7175 47.8926 90.0435 48.6795 90.0435 49.5V49.5ZM77.6685 74.25L83.856 74.25L83.856 60.6994L77.6685 57.6056L77.6685 74.25Z" fill="#F6BEC8"/>
<path d="M49.8247 3.09372L49.8247 13.7053L60.7766 20.295C62.1518 21.1176 63.2907 22.2822 64.0822 23.6756C64.8737 25.0689 65.291 26.6434 65.2935 28.2459L65.2935 29.0193L72.5329 32.639C74.0786 33.4107 75.3783 34.5986 76.2857 36.0689C77.193 37.5392 77.6719 39.2335 77.6685 40.9612L77.6685 83.5312C77.6891 84.2379 77.467 84.9304 77.0392 85.4933C76.6114 86.0562 76.0037 86.4556 75.3172 86.625L65.2935 89.0381L65.2935 89.7187C65.299 90.4788 65.0245 91.2143 64.5223 91.7849C64.0202 92.3555 63.3256 92.7213 62.571 92.8125C38.0994 95.9062 40.5435 95.3803 40.5435 95.9062C40.5467 96.3457 40.4562 96.7808 40.278 97.1826C40.0999 97.5844 39.8381 97.9436 39.5103 98.2363C39.1825 98.5291 38.796 98.7486 38.3767 98.8802C37.9574 99.0119 37.5148 99.0527 37.0785 99L17.7425 96.5868C15.4844 96.3063 13.408 95.2059 11.9079 93.4948C10.4078 91.7836 9.58862 89.5811 9.60598 87.3056L9.60598 77.3437C9.60598 76.5232 9.93193 75.7363 10.5121 75.1561C11.0923 74.5759 11.8792 74.25 12.6997 74.25C13.5202 74.25 14.3072 74.5759 14.8873 75.1561C15.4675 75.7363 15.7935 76.5232 15.7935 77.3437L15.7935 87.3365C15.788 88.0966 16.0625 88.8321 16.5646 89.4027C17.0668 89.9733 17.7614 90.3391 18.516 90.4303L34.356 92.4103L34.356 49.7165C34.3554 48.1854 34.7336 46.6779 35.457 45.3284C36.1803 43.979 37.2263 42.8294 38.5016 41.9822L42.245 39.4762C42.6706 39.196 43.0204 38.8149 43.2633 38.367C43.5061 37.919 43.6346 37.418 43.6372 36.9084L43.6372 7.14654L18.0829 14.1075C17.4079 14.2888 16.8142 14.6932 16.3985 15.255C15.9828 15.8168 15.7696 16.5028 15.7935 17.2012L15.7935 64.9687C15.7935 65.7892 15.4675 66.5761 14.8873 67.1563C14.3072 67.7365 13.5202 68.0625 12.6997 68.0625C11.8792 68.0625 11.0923 67.7365 10.5121 67.1563C9.93193 66.5761 9.60598 65.7892 9.60598 64.9687L9.60598 17.1084C9.60199 15.0696 10.2694 13.0862 11.5052 11.4646C12.741 9.843 14.4763 8.67342 16.4432 8.13653L45.9266 -2.57701e-05C46.3939 -0.126169 46.8843 -0.140897 47.3584 -0.0430194C47.8325 0.0548585 48.2769 0.262614 48.6561 0.56353C49.0352 0.864446 49.3385 1.25013 49.5415 1.68957C49.7444 2.12902 49.8415 2.60996 49.8247 3.09372V3.09372ZM71.481 81.1181L71.481 40.8993C71.485 40.3228 71.3278 39.7566 71.0272 39.2646C70.7265 38.7726 70.2943 38.3744 69.7794 38.115L65.2935 35.9494L65.2935 82.665L71.481 81.1181ZM45.6791 44.6428L41.9357 47.1487C41.5101 47.429 41.1603 47.81 40.9175 48.258C40.6746 48.706 40.5461 49.207 40.5435 49.7165L40.5435 89.3165L59.106 86.9962L59.106 28.215C59.1059 27.6781 58.9661 27.1504 58.7003 26.684C58.4345 26.2175 58.0519 25.8282 57.5901 25.5544L49.8247 20.9447L49.8247 36.9084C49.8253 38.4395 49.4471 39.947 48.7237 41.2965C48.0004 42.646 46.9545 43.7956 45.6791 44.6428V44.6428Z" fill="white"/>
<path d="M31.2622 21.6562C31.2622 22.2681 31.4436 22.8662 31.7836 23.375C32.1235 23.8837 32.6067 24.2803 33.172 24.5144C33.7373 24.7486 34.3594 24.8099 34.9595 24.6905C35.5596 24.5711 36.1109 24.2765 36.5436 23.8438C36.9762 23.4111 37.2709 22.8599 37.3903 22.2598C37.5096 21.6596 37.4484 21.0376 37.2142 20.4723C36.98 19.907 36.5835 19.4238 36.0748 19.0838C35.566 18.7439 34.9678 18.5624 34.356 18.5624C33.5354 18.5624 32.7485 18.8884 32.1683 19.4686C31.5882 20.0488 31.2622 20.8357 31.2622 21.6562Z" fill="#F6BEC8"/>
</g>
<defs>
<clipPath id="clip0_123_200">
<rect width="99" height="99" fill="white" transform="matrix(1.19249e-08 -1 -1 -1.19249e-08 99.3247 99)"/>
</clipPath>
</defs>
</svg>
