<svg width="100" height="99" viewBox="0 0 100 99" fill="none" xmlns="http://www.w3.org/2000/svg">
<g clip-path="url(#clip0_123_147)">
<path d="M9.55804 49.5L9.55804 77.3438C9.55804 78.1643 9.88399 78.9512 10.4642 79.5314C11.0444 80.1116 11.8313 80.4375 12.6518 80.4375L25.0268 80.4375C25.8473 80.4375 26.6342 80.1116 27.2144 79.5314C27.7946 78.9512 28.1205 78.1643 28.1205 77.3437L28.1205 52.5937C28.1189 52.0664 27.9826 51.5482 27.7243 51.0883C27.4661 50.6285 27.0947 50.2423 26.6452 49.9664C26.1957 49.6905 25.6832 49.5341 25.1563 49.5121C24.6294 49.49 24.1056 49.603 23.6346 49.8403L15.7455 53.7694L15.7455 49.5C15.7455 48.6795 15.4196 47.8926 14.8394 47.3124C14.2592 46.7322 13.4723 46.4062 12.6518 46.4062C11.8313 46.4062 11.0444 46.7322 10.4642 47.3124C9.88399 47.8926 9.55804 48.6795 9.55804 49.5V49.5ZM21.933 74.25L15.7455 74.25L15.7455 60.6994L21.933 57.6056L21.933 74.25Z" fill="#F6BEC8"/>
<path d="M49.7768 3.09372L49.7768 13.7053L38.8249 20.295C37.4497 21.1176 36.3109 22.2822 35.5194 23.6756C34.7278 25.0689 34.3105 26.6434 34.3081 28.2459L34.3081 29.0193L27.0687 32.639C25.5229 33.4107 24.2232 34.5986 23.3159 36.0689C22.4086 37.5392 21.9297 39.2335 21.9331 40.9612L21.9331 83.5312C21.9125 84.2379 22.1346 84.9304 22.5624 85.4933C22.9902 86.0562 23.5979 86.4556 24.2843 86.625L34.3081 89.0381L34.3081 89.7187C34.3026 90.4788 34.5771 91.2143 35.0792 91.7849C35.5814 92.3555 36.276 92.7213 37.0306 92.8125C61.5021 95.9062 59.0581 95.3803 59.0581 95.9062C59.0549 96.3457 59.1454 96.7808 59.3235 97.1826C59.5017 97.5844 59.7634 97.9436 60.0913 98.2363C60.4191 98.529 60.8056 98.7486 61.2249 98.8802C61.6442 99.0119 62.0867 99.0527 62.5231 99L81.859 96.5868C84.1172 96.3063 86.1936 95.2059 87.6937 93.4948C89.1938 91.7836 90.0129 89.5811 89.9956 87.3056L89.9956 77.3437C89.9956 76.5232 89.6696 75.7363 89.0894 75.1561C88.5093 74.5759 87.7223 74.25 86.9018 74.25C86.0813 74.25 85.2944 74.5759 84.7142 75.1561C84.134 75.7363 83.8081 76.5232 83.8081 77.3437L83.8081 87.3365C83.8136 88.0966 83.5391 88.8321 83.0369 89.4027C82.5348 89.9733 81.8402 90.3391 81.0856 90.4303L65.2456 92.4103L65.2456 49.7165C65.2461 48.1854 64.8679 46.6779 64.1446 45.3284C63.4213 43.979 62.3753 42.8294 61.0999 41.9822L57.3565 39.4762C56.9309 39.196 56.5812 38.8149 56.3383 38.367C56.0954 37.919 55.967 37.418 55.9643 36.9084L55.9643 7.14653L81.5187 14.1075C82.1936 14.2888 82.7873 14.6932 83.203 15.255C83.6187 15.8168 83.832 16.5028 83.8081 17.2012L83.8081 64.9687C83.8081 65.7892 84.134 66.5761 84.7142 67.1563C85.2944 67.7365 86.0813 68.0625 86.9018 68.0625C87.7223 68.0625 88.5093 67.7365 89.0894 67.1563C89.6696 66.5761 89.9956 65.7892 89.9956 64.9687L89.9956 17.1084C89.9996 15.0696 89.3321 13.0862 88.0964 11.4646C86.8606 9.84299 85.1252 8.67341 83.1584 8.13653L53.6749 -2.67791e-05C53.2076 -0.12617 52.7172 -0.140898 52.2432 -0.0430204C51.7691 0.0548576 51.3246 0.262613 50.9455 0.563529C50.5663 0.864445 50.2631 1.25013 50.0601 1.68957C49.8571 2.12902 49.7601 2.60996 49.7768 3.09372V3.09372ZM28.1206 81.1181L28.1206 40.8993C28.1166 40.3228 28.2738 39.7566 28.5744 39.2646C28.8751 38.7726 29.3072 38.3744 29.8221 38.115L34.3081 35.9494L34.3081 82.665L28.1206 81.1181ZM53.9224 44.6428L57.6659 47.1487C58.0915 47.429 58.4412 47.81 58.6841 48.258C58.927 48.7059 59.0554 49.207 59.0581 49.7165L59.0581 89.3165L40.4956 86.9962L40.4956 28.215C40.4957 27.6781 40.6355 27.1504 40.9013 26.684C41.1671 26.2175 41.5497 25.8282 42.0115 25.5543L49.7768 20.9447L49.7768 36.9084C49.7763 38.4395 50.1545 39.947 50.8778 41.2965C51.6011 42.646 52.6471 43.7956 53.9224 44.6428V44.6428Z" fill="white"/>
<path d="M68.3393 21.6562C68.3393 22.2681 68.1579 22.8662 67.8179 23.375C67.478 23.8837 66.9948 24.2803 66.4295 24.5144C65.8642 24.7486 65.2421 24.8099 64.642 24.6905C64.0419 24.5711 63.4906 24.2765 63.0579 23.8438C62.6253 23.4111 62.3306 22.8599 62.2112 22.2598C62.0919 21.6596 62.1531 21.0376 62.3873 20.4723C62.6215 19.907 63.018 19.4238 63.5267 19.0838C64.0355 18.7439 64.6337 18.5624 65.2455 18.5624C66.0661 18.5624 66.853 18.8884 67.4332 19.4686C68.0133 20.0488 68.3393 20.8357 68.3393 21.6562Z" fill="#F6BEC8"/>
</g>
<defs>
<clipPath id="clip0_123_147">
<rect width="99" height="99" fill="white" transform="translate(0.276794 99) rotate(-90)"/>
</clipPath>
</defs>
</svg>
