<svg width="99" height="99" viewBox="0 0 99 99" fill="none" xmlns="http://www.w3.org/2000/svg">
<g clip-path="url(#clip0_123_205)">
<path d="M72.0225 10.9519C70.0524 7.01087 66.8407 3.82731 62.8825 1.89199C58.9243 -0.0433302 54.4394 -0.622952 50.1192 0.242488C45.799 1.10793 41.8835 3.37038 38.9762 6.68103C36.0689 9.99169 34.3313 14.1667 34.0312 18.5625L21.6562 18.5625C21.6562 17.742 21.3303 16.9551 20.7501 16.3749C20.1699 15.7947 19.383 15.4687 18.5625 15.4687C17.742 15.4687 16.9551 15.7947 16.3749 16.3749C15.7947 16.9551 15.4687 17.742 15.4687 18.5625L15.4687 40.2187C15.4687 41.0393 15.7947 41.8262 16.3749 42.4064C16.9551 42.9866 17.742 43.3125 18.5625 43.3125C19.383 43.3125 20.1699 42.9866 20.7501 42.4064C21.3303 41.8262 21.6562 41.0393 21.6562 40.2187L34.0312 40.2187L34.0312 52.5937L15.4687 52.5937C15.4687 51.7732 15.1428 50.9863 14.5626 50.4061C13.9824 49.8259 13.1955 49.5 12.375 49.5C11.5545 49.5 10.7676 49.8259 10.1874 50.4061C9.6072 50.9863 9.28125 51.7732 9.28125 52.5938L9.28125 95.9062C9.28125 96.7268 9.6072 97.5137 10.1874 98.0939C10.7676 98.6741 11.5545 99 12.375 99C13.1955 99 13.9824 98.6741 14.5626 98.0939C15.1428 97.5137 15.4687 96.7268 15.4687 95.9062L15.4687 58.7812L68.0625 58.7812L68.0625 89.7187L24.75 89.7187C23.9295 89.7187 23.1426 90.0447 22.5624 90.6249C21.9822 91.2051 21.6562 91.992 21.6562 92.8125C21.6562 93.633 21.9822 94.4199 22.5624 95.0001C23.1426 95.5803 23.9295 95.9062 24.75 95.9062L68.0625 95.9062C68.0994 96.7268 68.4608 97.499 69.0671 98.0531C69.6734 98.6072 70.475 98.8977 71.2955 98.8608C72.116 98.8239 72.8882 98.4625 73.4423 97.8562C73.9964 97.2499 74.2869 96.4483 74.25 95.6278C78.5521 94.8742 82.4507 92.6276 85.26 89.2834C88.0693 85.9391 89.6095 81.7114 89.6095 77.3437C89.6095 72.9761 88.0693 68.7483 85.26 65.4041C82.4507 62.0599 78.5521 59.8133 74.25 59.0597L74.25 52.3153C78.4397 51.5842 82.2512 49.4366 85.047 46.2318C87.8429 43.027 89.4534 38.9592 89.6092 34.7091C89.765 30.459 88.4566 26.2843 85.903 22.8833C83.3493 19.4824 79.7052 17.0615 75.5803 16.0256L85.3875 8.66249C85.7717 8.37432 86.0836 8.00065 86.2984 7.57107C86.5132 7.14148 86.625 6.66779 86.625 6.1875C86.625 5.61295 86.465 5.04975 86.1629 4.56101C85.8609 4.07227 85.4287 3.67731 84.9148 3.42037C84.4009 3.16342 83.8256 3.05465 83.2534 3.10624C82.6812 3.15784 82.1346 3.36777 81.675 3.7125L72.0225 10.9519ZM54.1406 6.1875C57.5799 6.16621 60.9054 7.41878 63.476 9.70377C66.0466 11.9888 67.6804 15.1444 68.0625 18.5625L40.2187 18.5625C40.6008 15.1444 42.2346 11.9888 44.8053 9.70377C47.3759 7.41878 50.7013 6.16621 54.1406 6.1875V6.1875ZM21.6562 34.0312L21.6562 24.75L34.0312 24.75L34.0312 34.0312L21.6562 34.0312ZM40.2187 52.5937L40.2187 24.75L68.0625 24.75L68.0625 52.5937L40.2187 52.5937ZM83.5312 77.3437C83.5224 80.0803 82.6066 82.7368 80.9273 84.8976C79.2479 87.0583 76.8997 88.6015 74.25 89.2856L74.25 65.4019C76.8997 66.086 79.2479 67.6292 80.9273 69.7899C82.6066 71.9507 83.5224 74.6071 83.5312 77.3437V77.3437ZM83.5312 34.0312C83.5224 36.7678 82.6066 39.4243 80.9273 41.5851C79.2479 43.7458 76.8997 45.289 74.25 45.9731L74.25 22.0894C76.8997 22.7735 79.2479 24.3167 80.9273 26.4774C82.6066 28.6382 83.5224 31.2946 83.5312 34.0312Z" fill="white"/>
<path d="M40.2187 68.0625L40.2187 80.4375C40.2187 81.258 39.8928 82.0449 39.3126 82.6251C38.7324 83.2053 37.9455 83.5312 37.125 83.5312L30.9375 83.5312C28.476 83.5312 26.1152 82.5534 24.3747 80.8128C22.6341 79.0723 21.6562 76.7115 21.6562 74.25C21.6562 71.7885 22.6341 69.4277 24.3747 67.6872C26.1152 65.9466 28.476 64.9687 30.9375 64.9687L37.125 64.9687C37.9455 64.9687 38.7324 65.2947 39.3126 65.8749C39.8928 66.4551 40.2187 67.242 40.2187 68.0625ZM34.0312 77.3437L34.0312 71.1562L30.9375 71.1562C30.117 71.1562 29.3301 71.4822 28.7499 72.0624C28.1697 72.6426 27.8437 73.4295 27.8437 74.25C27.8437 75.0705 28.1697 75.8574 28.7499 76.4376C29.3301 77.0178 30.117 77.3437 30.9375 77.3437L34.0312 77.3437Z" fill="#F6BEC8"/>
<path d="M55.6875 34.0312L55.6875 43.3125C55.6875 44.133 55.3616 44.9199 54.7814 45.5001C54.2012 46.0803 53.4143 46.4062 52.5938 46.4062C51.7732 46.4062 50.9863 46.0803 50.4061 45.5001C49.8259 44.9199 49.5 44.133 49.5 43.3125L49.5 34.0312C49.5 33.2107 49.8259 32.4238 50.4061 31.8436C50.9863 31.2634 51.7732 30.9375 52.5937 30.9375C53.4143 30.9375 54.2012 31.2634 54.7814 31.8436C55.3616 32.4238 55.6875 33.2107 55.6875 34.0312Z" fill="#F6BEC8"/>
</g>
<defs>
<clipPath id="clip0_123_205">
<rect width="99" height="99" fill="white" transform="translate(0 99) rotate(-90)"/>
</clipPath>
</defs>
</svg>
