<svg width="100" height="99" viewBox="0 0 100 99" fill="none" xmlns="http://www.w3.org/2000/svg">
<g clip-path="url(#clip0_123_154)">
<path d="M27.0254 10.9519C28.9955 7.01087 32.2072 3.82731 36.1654 1.89199C40.1236 -0.0433334 44.6085 -0.622956 48.9287 0.242484C53.2489 1.10792 57.1644 3.37037 60.0717 6.68103C62.979 9.99169 64.7166 14.1667 65.0167 18.5625L77.3917 18.5625C77.3917 17.742 77.7176 16.9551 78.2978 16.3749C78.878 15.7947 79.6649 15.4687 80.4854 15.4687C81.3059 15.4687 82.0928 15.7947 82.673 16.3749C83.2532 16.9551 83.5792 17.742 83.5792 18.5625L83.5792 40.2187C83.5792 41.0393 83.2532 41.8262 82.673 42.4064C82.0928 42.9866 81.3059 43.3125 80.4854 43.3125C79.6649 43.3125 78.878 42.9866 78.2978 42.4064C77.7176 41.8262 77.3917 41.0393 77.3917 40.2187L65.0167 40.2187L65.0167 52.5937L83.5792 52.5937C83.5792 51.7732 83.9051 50.9863 84.4853 50.4061C85.0655 49.8259 85.8524 49.5 86.6729 49.5C87.4934 49.5 88.2803 49.8259 88.8605 50.4061C89.4407 50.9863 89.7667 51.7732 89.7667 52.5937L89.7667 95.9062C89.7667 96.7268 89.4407 97.5137 88.8605 98.0939C88.2803 98.6741 87.4934 99 86.6729 99C85.8524 99 85.0655 98.6741 84.4853 98.0939C83.9051 97.5137 83.5792 96.7268 83.5792 95.9063L83.5792 58.7812L30.9854 58.7812L30.9854 89.7188L74.2979 89.7187C75.1184 89.7187 75.9053 90.0447 76.4855 90.6249C77.0657 91.2051 77.3917 91.992 77.3917 92.8125C77.3917 93.633 77.0657 94.4199 76.4855 95.0001C75.9053 95.5803 75.1184 95.9063 74.2979 95.9063L30.9854 95.9063C30.9485 96.7268 30.5871 97.499 29.9808 98.0531C29.3745 98.6072 28.573 98.8977 27.7524 98.8608C26.9319 98.8239 26.1597 98.4625 25.6056 97.8562C25.0515 97.2499 24.761 96.4483 24.7979 95.6278C20.4958 94.8742 16.5972 92.6276 13.7879 89.2834C10.9786 85.9391 9.43846 81.7114 9.43846 77.3438C9.43846 72.9761 10.9786 68.7484 13.7879 65.4041C16.5972 62.0599 20.4958 59.8133 24.7979 59.0597L24.7979 52.3153C20.6083 51.5842 16.7967 49.4366 14.0009 46.2318C11.205 43.027 9.59451 38.9592 9.43871 34.7091C9.28291 30.459 10.5913 26.2843 13.145 22.8833C15.6986 19.4824 19.3427 17.0615 23.4676 16.0256L13.6604 8.66249C13.2762 8.37432 12.9643 8.00065 12.7495 7.57107C12.5347 7.14148 12.4229 6.66779 12.4229 6.1875C12.4229 5.61295 12.5829 5.04975 12.885 4.56101C13.187 4.07227 13.6192 3.67731 14.1331 3.42036C14.647 3.16342 15.2223 3.05465 15.7945 3.10624C16.3667 3.15784 16.9133 3.36777 17.3729 3.7125L27.0254 10.9519ZM44.9073 6.18749C41.468 6.16621 38.1425 7.41877 35.5719 9.70376C33.0013 11.9888 31.3675 15.1444 30.9854 18.5625L58.8292 18.5625C58.4471 15.1444 56.8133 11.9888 54.2427 9.70376C51.672 7.41877 48.3466 6.16621 44.9073 6.18749V6.18749ZM77.3917 34.0312L77.3917 24.75L65.0167 24.75L65.0167 34.0312L77.3917 34.0312ZM58.8292 52.5937L58.8292 24.75L30.9854 24.75L30.9854 52.5937L58.8292 52.5937ZM15.5167 77.3438C15.5256 80.0804 16.4413 82.7368 18.1206 84.8976C19.8 87.0583 22.1482 88.6015 24.7979 89.2856L24.7979 65.4019C22.1482 66.086 19.8 67.6292 18.1206 69.7899C16.4413 71.9507 15.5256 74.6072 15.5167 77.3438V77.3438ZM15.5167 34.0312C15.5256 36.7678 16.4413 39.4243 18.1206 41.5851C19.8 43.7458 22.1482 45.289 24.7979 45.9731L24.7979 22.0894C22.1482 22.7735 19.8 24.3167 18.1206 26.4774C16.4413 28.6382 15.5256 31.2946 15.5167 34.0312Z" fill="white"/>
<path d="M58.8292 68.0625L58.8292 80.4375C58.8292 81.258 59.1551 82.0449 59.7353 82.6251C60.3155 83.2053 61.1024 83.5313 61.9229 83.5313L68.1104 83.5313C70.572 83.5313 72.9327 82.5534 74.6732 80.8128C76.4138 79.0723 77.3917 76.7115 77.3917 74.25C77.3917 71.7885 76.4138 69.4277 74.6732 67.6872C72.9327 65.9466 70.572 64.9687 68.1104 64.9687L61.9229 64.9687C61.1024 64.9687 60.3155 65.2947 59.7353 65.8749C59.1551 66.4551 58.8292 67.242 58.8292 68.0625ZM65.0167 77.3437L65.0167 71.1562L68.1104 71.1562C68.9309 71.1562 69.7178 71.4822 70.298 72.0624C70.8782 72.6426 71.2042 73.4295 71.2042 74.25C71.2042 75.0705 70.8782 75.8574 70.298 76.4376C69.7178 77.0178 68.9309 77.3437 68.1104 77.3437L65.0167 77.3437Z" fill="#F6BEC8"/>
<path d="M43.3604 34.0312L43.3604 43.3125C43.3604 44.133 43.6864 44.9199 44.2665 45.5001C44.8467 46.0803 45.6336 46.4063 46.4542 46.4063C47.2747 46.4063 48.0616 46.0803 48.6418 45.5001C49.222 44.9199 49.5479 44.133 49.5479 43.3125L49.5479 34.0312C49.5479 33.2107 49.222 32.4238 48.6418 31.8436C48.0616 31.2634 47.2747 30.9375 46.4542 30.9375C45.6336 30.9375 44.8467 31.2634 44.2665 31.8436C43.6864 32.4238 43.3604 33.2107 43.3604 34.0312Z" fill="#F6BEC8"/>
</g>
<defs>
<clipPath id="clip0_123_154">
<rect width="99" height="99" fill="white" transform="matrix(-4.37114e-08 -1 -1 4.37114e-08 99.0479 99)"/>
</clipPath>
</defs>
</svg>
