<svg width="258" height="200" viewBox="0 0 258 200" fill="none" xmlns="http://www.w3.org/2000/svg">
<path d="M254.163 67.0035H115.765C74.1795 67.0035 29.3939 126.756 29.3939 126.756C29.3939 126.756 15.1294 142.633 15.1294 155.966C15.1294 168.818 19.8454 172.323 46.7021 172.323H254.544" fill="#F0F0FF"/>
<path d="M142.341 125.549L137.839 135.129H253.783L254.163 129.207L142.341 125.549Z" fill="white"/>
<path d="M254.163 64.3406H115.765C73.3357 64.3406 29.1258 122.675 27.2635 125.159C27.3107 125.095 27.3609 125.035 27.4131 124.975C26.8034 125.656 12.4675 141.776 12.4675 155.966C12.4675 172.112 21.4375 174.986 46.7021 174.986H254.544V169.661H46.7021C18.9012 169.661 17.7923 165.706 17.7923 155.966C17.7923 143.821 31.2392 128.686 31.3748 128.533C31.427 128.474 31.4782 128.413 31.5244 128.35C31.9644 127.764 75.9976 69.6644 115.765 69.6644H254.163V64.3406ZM0 185.942H255.675V192.466H0V185.942Z" fill="#6E6E96"/>
<path d="M254.163 94.4729H157.743L144.811 126.544H254.163" fill="#B0E4FF"/>
<path d="M254.163 91.81H157.743C157.212 91.8098 156.693 91.9684 156.253 92.2654C155.813 92.5623 155.472 92.9841 155.274 93.4764L142.341 125.549C142.179 125.954 142.118 126.391 142.165 126.824C142.211 127.257 142.362 127.673 142.606 128.034C142.85 128.394 143.178 128.69 143.563 128.895C143.947 129.1 144.376 129.207 144.811 129.208H254.163V123.883H144.811C145.696 123.883 146.523 124.323 147.016 125.055C147.26 125.417 147.411 125.832 147.457 126.266C147.503 126.699 147.442 127.138 147.28 127.542L160.212 95.4693C160.013 95.9618 159.672 96.3837 159.232 96.6808C158.792 96.9779 158.274 97.1367 157.743 97.1367H254.163V91.81Z" fill="#6E6E96"/>
<path d="M54.3341 99.3385C43.1964 111.088 29.4914 126.646 29.398 126.751L29.394 126.757L111.834 126.545L128.279 92.9441H61.4357C59.0195 95.0205 56.6517 97.1526 54.3341 99.3385Z" fill="#B0E4FF"/>
<path d="M39.0922 135.129H110.312L114.268 127.625L41.2257 129.388L39.0922 135.129Z" fill="white"/>
<path d="M52.4025 97.5074C41.4597 109.051 27.9766 124.338 27.4081 124.983C27.3713 125.025 27.3358 125.068 27.3016 125.112C26.9928 125.506 26.8009 125.978 26.748 126.475C26.695 126.972 26.7832 127.474 27.0024 127.924C27.2216 128.373 27.563 128.752 27.9873 129.016C28.4117 129.28 28.902 129.42 29.402 129.419L111.841 129.207C112.355 129.206 112.858 129.057 113.289 128.776C113.72 128.496 114.06 128.096 114.268 127.627L130.712 94.0259C130.893 93.6206 130.969 93.1765 130.934 92.7342C130.9 92.2918 130.755 91.8652 130.513 91.4932C130.271 91.1211 129.94 90.8154 129.55 90.6039C129.16 90.3924 128.723 90.2818 128.279 90.2822H61.4357C60.7999 90.2822 60.1831 90.5122 59.701 90.9261C57.2542 93.0299 54.8559 95.1895 52.5079 97.4029C52.4708 97.4357 52.4356 97.4706 52.4025 97.5074ZM61.4357 95.6059H128.279C127.836 95.6062 127.399 95.4956 127.009 95.2841C126.619 95.0726 126.288 94.7669 126.046 94.3949C125.804 94.0229 125.659 93.5964 125.624 93.154C125.589 92.7117 125.665 92.2677 125.846 91.8622L109.4 125.464C109.609 124.994 109.949 124.595 110.38 124.314C110.81 124.033 111.313 123.883 111.827 123.882L29.3869 124.093C29.8991 124.092 30.4006 124.239 30.8314 124.516C31.2622 124.793 31.604 125.188 31.8159 125.655C32.0278 126.121 32.1007 126.638 32.0261 127.145C31.9514 127.652 31.7322 128.126 31.3949 128.512C31.9674 127.862 45.3902 112.645 56.2657 101.169C56.2315 101.205 56.1953 101.24 56.1592 101.275C58.4472 99.117 60.7846 97.0117 63.1694 94.9611C62.6878 95.3774 62.0723 95.6063 61.4357 95.6059Z" fill="#6E6E96"/>
<path d="M254.484 154.066H70.6648C43.8092 154.066 39.0932 150.778 39.0932 138.715C39.0932 126.2 53.3567 111.297 53.3567 111.297C53.3567 111.297 56.6554 107.173 62.2744 101.172H121.711L124.183 95.6069H67.6514C76.3501 86.8811 88.3375 76.1663 101.694 67.9628C64.6812 78.5429 29.395 125.617 29.395 125.617C29.395 125.617 15.1304 141.494 15.1304 154.827C15.1304 167.678 19.8464 171.183 46.7031 171.183H254.544L254.484 154.066Z" fill="#6E6E96"/>
<path d="M157.301 102.691H254.161L254.163 97.1347H158.884L157.301 102.691Z" fill="#6E6E96"/>
<path d="M59.3454 110.119H79.5042V103.087H64.3678L59.3454 110.119ZM154.857 110.119H253.023V103.087H157.529L154.857 110.119Z" fill="white"/>
<path d="M54.1864 170.583C54.1864 174.233 55.6365 177.734 58.2176 180.315C60.7987 182.896 64.2995 184.346 67.9497 184.346C71.6 184.346 75.1007 182.896 77.6819 180.315C80.263 177.734 81.713 174.233 81.713 170.583C81.713 166.933 80.263 163.432 77.6819 160.851C75.1007 158.27 71.6 156.82 67.9497 156.82C64.2995 156.82 60.7987 158.27 58.2176 160.851C55.6365 163.432 54.1864 166.933 54.1864 170.583Z" fill="#F0F0FF"/>
<path d="M67.9497 159.484C74.07 159.484 79.0492 164.463 79.0492 170.584C79.0492 176.705 74.07 181.684 67.9497 181.684C61.8284 181.684 56.8493 176.705 56.8493 170.584C56.8493 164.463 61.8284 159.484 67.9497 159.484ZM51.5245 170.584C51.5245 179.641 58.8924 187.009 67.9497 187.009C77.0061 187.009 84.3749 179.641 84.3749 170.584C84.3749 161.527 77.0071 154.159 67.9497 154.159C58.8924 154.159 51.5245 161.527 51.5245 170.584Z" fill="#6E6E96"/>
<path d="M132.454 170.583C132.454 172.391 132.81 174.18 133.501 175.85C134.193 177.52 135.207 179.038 136.485 180.316C137.763 181.594 139.28 182.608 140.95 183.3C142.62 183.992 144.41 184.348 146.217 184.348C148.025 184.348 149.815 183.992 151.485 183.3C153.155 182.608 154.672 181.594 155.95 180.316C157.228 179.038 158.242 177.52 158.934 175.85C159.625 174.18 159.981 172.391 159.981 170.583C159.981 168.775 159.625 166.985 158.934 165.315C158.242 163.645 157.228 162.128 155.95 160.85C154.672 159.572 153.155 158.558 151.485 157.866C149.815 157.174 148.025 156.818 146.217 156.818C144.41 156.818 142.62 157.174 140.95 157.866C139.28 158.558 137.763 159.572 136.485 160.85C135.207 162.128 134.193 163.645 133.501 165.315C132.81 166.985 132.454 168.775 132.454 170.583Z" fill="#F0F0FF"/>
<path d="M146.217 159.484C152.34 159.484 157.32 164.463 157.32 170.584C157.32 176.705 152.34 181.684 146.217 181.684C140.098 181.684 135.119 176.705 135.119 170.584C135.119 164.463 140.099 159.484 146.217 159.484ZM129.794 170.584C129.794 179.641 137.163 187.009 146.22 187.009C155.277 187.009 162.647 179.641 162.647 170.584C162.647 161.527 155.277 154.159 146.22 154.159C137.164 154.159 129.794 161.527 129.794 170.584Z" fill="#6E6E96"/>
<path d="M175.2 170.583C175.199 172.391 175.555 174.18 176.247 175.85C176.938 177.52 177.952 179.038 179.23 180.316C180.508 181.594 182.026 182.608 183.695 183.3C185.365 183.992 187.155 184.348 188.963 184.348C190.77 184.348 192.56 183.992 194.23 183.3C195.9 182.608 197.417 181.594 198.696 180.316C199.974 179.038 200.987 177.52 201.679 175.85C202.371 174.18 202.726 172.391 202.726 170.583C202.726 168.775 202.371 166.985 201.679 165.315C200.987 163.645 199.974 162.128 198.696 160.85C197.417 159.572 195.9 158.558 194.23 157.866C192.56 157.174 190.77 156.818 188.963 156.818C187.155 156.818 185.365 157.174 183.695 157.866C182.026 158.558 180.508 159.572 179.23 160.85C177.952 162.128 176.938 163.645 176.247 165.315C175.555 166.985 175.199 168.775 175.2 170.583Z" fill="#F0F0FF"/>
<path d="M188.963 159.484C195.082 159.484 200.062 164.463 200.062 170.584C200.062 176.705 195.082 181.684 188.963 181.684C182.84 181.684 177.86 176.705 177.86 170.584C177.86 164.463 182.842 159.484 188.963 159.484ZM172.539 170.584C172.539 179.641 179.907 187.009 188.965 187.009C198.02 187.009 205.391 179.641 205.391 170.584C205.391 161.527 198.02 154.159 188.965 154.159C179.905 154.159 172.539 161.527 172.539 170.584Z" fill="#6E6E96"/>
<path d="M73.1318 90.2812C73.1318 90.2812 92.8165 82.3388 122.865 82.3388H253.785L254.164 69.6674H122.485C122.485 69.6664 92.9069 66.7333 73.1318 90.2812Z" fill="white"/>
<path d="M12.7709 15.1214H71.82V22.1527H12.7709V15.1214Z" fill="white"/>
<path d="M154.187 31.193H202.402V38.2243H154.187V31.193Z" fill="white"/>
<path d="M217.387 170.583C217.387 172.391 217.743 174.18 218.435 175.85C219.126 177.52 220.14 179.038 221.418 180.316C222.696 181.594 224.213 182.608 225.883 183.3C227.553 183.992 229.343 184.348 231.151 184.348C232.958 184.348 234.748 183.992 236.418 183.3C238.088 182.608 239.605 181.594 240.883 180.316C242.162 179.038 243.175 177.52 243.867 175.85C244.558 174.18 244.914 172.391 244.914 170.583C244.914 168.775 244.558 166.985 243.867 165.315C243.175 163.645 242.162 162.128 240.883 160.85C239.605 159.572 238.088 158.558 236.418 157.866C234.748 157.174 232.958 156.818 231.151 156.818C229.343 156.818 227.553 157.174 225.883 157.866C224.213 158.558 222.696 159.572 221.418 160.85C220.14 162.128 219.126 163.645 218.435 165.315C217.743 166.985 217.387 168.775 217.387 170.583Z" fill="#F0F0FF"/>
<path d="M231.151 159.484C237.27 159.484 242.25 164.463 242.25 170.584C242.25 176.705 237.27 181.684 231.151 181.684C225.027 181.684 220.048 176.705 220.048 170.584C220.048 164.463 225.029 159.484 231.151 159.484ZM214.727 170.584C214.727 179.641 222.095 187.009 231.153 187.009C240.208 187.009 247.579 179.641 247.579 170.584C247.579 161.527 240.208 154.159 231.153 154.159C222.093 154.159 214.727 161.527 214.727 170.584Z" fill="#6E6E96"/>
</svg>
